<?xml version="1.0" encoding="UTF-8" standalone="no"?>
<!DOCTYPE svg PUBLIC "-//W3C//DTD SVG 1.1//EN"
 "http://www.w3.org/Graphics/SVG/1.1/DTD/svg11.dtd">
<!-- Generated by graphviz version 2.40.1 (20161225.0304)
 -->
<!-- Title: dependencies Pages: 1 -->
<svg width="657pt" height="284pt"
 viewBox="0.00 0.00 657.00 284.00" xmlns="http://www.w3.org/2000/svg" xmlns:xlink="http://www.w3.org/1999/xlink">
<g id="graph0" class="graph" transform="scale(1 1) rotate(0) translate(4 280)">
<title>dependencies</title>
<polygon fill="#ffffff" stroke="transparent" points="-4,4 -4,-280 653,-280 653,4 -4,4"/>
<text text-anchor="start" x="303.5091" y="-42.4" font-family="sans-serif" font-weight="bold" font-size="14.00" fill="#000000">Legend</text>
<polygon fill="#ffffb3" stroke="transparent" points="90.5,-10 90.5,-30 110.5,-30 110.5,-10 90.5,-10"/>
<text text-anchor="start" x="114.129" y="-15.4" font-family="sans-serif" font-size="14.00" fill="#000000"> &#160;Declarations</text>
<polygon fill="#8dd3c7" stroke="transparent" points="203.5,-10 203.5,-30 223.5,-30 223.5,-10 203.5,-10"/>
<text text-anchor="start" x="227.2251" y="-15.4" font-family="sans-serif" font-size="14.00" fill="#000000"> &#160;Module</text>
<polygon fill="#80b1d3" stroke="transparent" points="289.5,-10 289.5,-30 309.5,-30 309.5,-10 289.5,-10"/>
<text text-anchor="start" x="313.2812" y="-15.4" font-family="sans-serif" font-size="14.00" fill="#000000"> &#160;Bootstrap</text>
<polygon fill="#fdb462" stroke="transparent" points="386.5,-10 386.5,-30 406.5,-30 406.5,-10 386.5,-10"/>
<text text-anchor="start" x="410.1732" y="-15.4" font-family="sans-serif" font-size="14.00" fill="#000000"> &#160;Providers</text>
<polygon fill="#fb8072" stroke="transparent" points="482.5,-10 482.5,-30 502.5,-30 502.5,-10 482.5,-10"/>
<text text-anchor="start" x="506.2258" y="-15.4" font-family="sans-serif" font-size="14.00" fill="#000000"> &#160;Exports</text>
<g id="clust1" class="cluster">
<title>cluster_AuthModule</title>
<polygon fill="none" stroke="#000000" stroke-dasharray="1,5" points="8,-70 8,-268 641,-268 641,-70 8,-70"/>
</g>
<g id="clust3" class="cluster">
<title>cluster_AuthModule_imports</title>
<polygon fill="none" stroke="#000000" points="511,-78 511,-130 633,-130 633,-78 511,-78"/>
</g>
<g id="clust4" class="cluster">
<title>cluster_AuthModule_exports</title>
<polygon fill="none" stroke="#000000" points="199,-208 199,-260 331,-260 331,-208 199,-208"/>
</g>
<g id="clust6" class="cluster">
<title>cluster_AuthModule_providers</title>
<polygon fill="none" stroke="#000000" points="16,-78 16,-130 503,-130 503,-78 16,-78"/>
</g>
<!-- ServicesModule -->
<g id="node1" class="node">
<title>ServicesModule</title>
<polygon fill="#8dd3c7" stroke="#000000" points="625.472,-122 622.472,-126 601.472,-126 598.472,-122 518.528,-122 518.528,-86 625.472,-86 625.472,-122"/>
<text text-anchor="middle" x="572" y="-99.8" font-family="Times,serif" font-size="14.00" fill="#000000">ServicesModule</text>
</g>
<!-- AuthModule -->
<g id="node2" class="node">
<title>AuthModule</title>
<polygon fill="#8dd3c7" stroke="#000000" points="308.5482,-187 305.5482,-191 284.5482,-191 281.5482,-187 221.4518,-187 221.4518,-151 308.5482,-151 308.5482,-187"/>
<text text-anchor="middle" x="265" y="-164.8" font-family="Times,serif" font-size="14.00" fill="#000000">AuthModule</text>
</g>
<!-- ServicesModule&#45;&gt;AuthModule -->
<g id="edge1" class="edge">
<title>ServicesModule&#45;&gt;AuthModule</title>
<path fill="none" stroke="#000000" d="M572,-122.2843C572,-143.3211 572,-175 572,-175 572,-175 318.6596,-175 318.6596,-175"/>
<polygon fill="#000000" stroke="#000000" points="318.6596,-171.5001 308.6596,-175 318.6595,-178.5001 318.6596,-171.5001"/>
</g>
<!-- AuthUserService  -->
<g id="node3" class="node">
<title>AuthUserService </title>
<polygon fill="#fb8072" stroke="#000000" points="322.9012,-252 207.0988,-252 207.0988,-216 322.9012,-216 322.9012,-252"/>
<text text-anchor="middle" x="265" y="-229.8" font-family="Times,serif" font-size="14.00" fill="#000000">AuthUserService </text>
</g>
<!-- AuthModule&#45;&gt;AuthUserService  -->
<g id="edge2" class="edge">
<title>AuthModule&#45;&gt;AuthUserService </title>
<path fill="none" stroke="#000000" stroke-dasharray="5,2" d="M265,-187.1061C265,-187.1061 265,-205.991 265,-205.991"/>
<polygon fill="#000000" stroke="#000000" points="261.5001,-205.9909 265,-215.991 268.5001,-205.991 261.5001,-205.9909"/>
</g>
<!-- AuthUserService -->
<g id="node4" class="node">
<title>AuthUserService</title>
<ellipse fill="#fdb462" stroke="#000000" cx="417" cy="-104" rx="77.5646" ry="18"/>
<text text-anchor="middle" x="417" y="-99.8" font-family="Times,serif" font-size="14.00" fill="#000000">AuthUserService</text>
</g>
<!-- AuthUserService&#45;&gt;AuthModule -->
<g id="edge3" class="edge">
<title>AuthUserService&#45;&gt;AuthModule</title>
<path fill="none" stroke="#000000" d="M417,-122.0225C417,-139.3734 417,-163 417,-163 417,-163 318.5571,-163 318.5571,-163"/>
<polygon fill="#000000" stroke="#000000" points="318.5571,-159.5001 308.5571,-163 318.5571,-166.5001 318.5571,-159.5001"/>
</g>
<!-- JwtStrategy -->
<g id="node5" class="node">
<title>JwtStrategy</title>
<ellipse fill="#fdb462" stroke="#000000" cx="265" cy="-104" rx="56.7561" ry="18"/>
<text text-anchor="middle" x="265" y="-99.8" font-family="Times,serif" font-size="14.00" fill="#000000">JwtStrategy</text>
</g>
<!-- JwtStrategy&#45;&gt;AuthModule -->
<g id="edge4" class="edge">
<title>JwtStrategy&#45;&gt;AuthModule</title>
<path fill="none" stroke="#000000" d="M265,-122.1061C265,-122.1061 265,-140.991 265,-140.991"/>
<polygon fill="#000000" stroke="#000000" points="261.5001,-140.9909 265,-150.991 268.5001,-140.991 261.5001,-140.9909"/>
</g>
<!-- LocalUserStrategy -->
<g id="node6" class="node">
<title>LocalUserStrategy</title>
<ellipse fill="#fdb462" stroke="#000000" cx="107" cy="-104" rx="83.3616" ry="18"/>
<text text-anchor="middle" x="107" y="-99.8" font-family="Times,serif" font-size="14.00" fill="#000000">LocalUserStrategy</text>
</g>
<!-- LocalUserStrategy&#45;&gt;AuthModule -->
<g id="edge5" class="edge">
<title>LocalUserStrategy&#45;&gt;AuthModule</title>
<path fill="none" stroke="#000000" d="M134.8103,-121.0652C134.8103,-138.4902 134.8103,-163 134.8103,-163 134.8103,-163 211.2865,-163 211.2865,-163"/>
<polygon fill="#000000" stroke="#000000" points="211.2866,-166.5001 221.2865,-163 211.2865,-159.5001 211.2866,-166.5001"/>
</g>
<!-- LocalUserStrategy&#45;&gt;AuthModule -->
<g id="edge6" class="edge">
<title>LocalUserStrategy&#45;&gt;AuthModule</title>
<path fill="none" stroke="#000000" d="M79.1897,-121.1871C79.1897,-142.1998 79.1897,-175 79.1897,-175 79.1897,-175 211.4358,-175 211.4358,-175"/>
<polygon fill="#000000" stroke="#000000" points="211.4358,-178.5001 221.4358,-175 211.4357,-171.5001 211.4358,-178.5001"/>
</g>
</g>
</svg>
