<?xml version="1.0" encoding="UTF-8" standalone="no"?>
<!DOCTYPE svg PUBLIC "-//W3C//DTD SVG 1.1//EN"
 "http://www.w3.org/Graphics/SVG/1.1/DTD/svg11.dtd">
<!-- Generated by graphviz version 2.40.1 (20161225.0304)
 -->
<!-- Title: dependencies Pages: 1 -->
<svg width="504pt" height="211pt"
 viewBox="0.00 0.00 504.00 211.00" xmlns="http://www.w3.org/2000/svg" xmlns:xlink="http://www.w3.org/1999/xlink">
<g id="graph0" class="graph" transform="scale(1 1) rotate(0) translate(4 207)">
<title>dependencies</title>
<polygon fill="#ffffff" stroke="transparent" points="-4,4 -4,-207 500,-207 500,4 -4,4"/>
<text text-anchor="start" x="227.0091" y="-42.4" font-family="sans-serif" font-weight="bold" font-size="14.00" fill="#000000">Legend</text>
<polygon fill="#ffffb3" stroke="transparent" points="14,-10 14,-30 34,-30 34,-10 14,-10"/>
<text text-anchor="start" x="37.629" y="-15.4" font-family="sans-serif" font-size="14.00" fill="#000000"> &#160;Declarations</text>
<polygon fill="#8dd3c7" stroke="transparent" points="127,-10 127,-30 147,-30 147,-10 127,-10"/>
<text text-anchor="start" x="150.7251" y="-15.4" font-family="sans-serif" font-size="14.00" fill="#000000"> &#160;Module</text>
<polygon fill="#80b1d3" stroke="transparent" points="213,-10 213,-30 233,-30 233,-10 213,-10"/>
<text text-anchor="start" x="236.7812" y="-15.4" font-family="sans-serif" font-size="14.00" fill="#000000"> &#160;Bootstrap</text>
<polygon fill="#fdb462" stroke="transparent" points="310,-10 310,-30 330,-30 330,-10 310,-10"/>
<text text-anchor="start" x="333.6732" y="-15.4" font-family="sans-serif" font-size="14.00" fill="#000000"> &#160;Providers</text>
<polygon fill="#fb8072" stroke="transparent" points="406,-10 406,-30 426,-30 426,-10 406,-10"/>
<text text-anchor="start" x="429.7258" y="-15.4" font-family="sans-serif" font-size="14.00" fill="#000000"> &#160;Exports</text>
<g id="clust1" class="cluster">
<title>cluster_AppModule</title>
<polygon fill="none" stroke="#000000" stroke-dasharray="1,5" points="61,-70 61,-195 435,-195 435,-70 61,-70"/>
</g>
<g id="clust3" class="cluster">
<title>cluster_AppModule_imports</title>
<polygon fill="none" stroke="#000000" points="69,-78 69,-130 427,-130 427,-78 69,-78"/>
</g>
<!-- Module1Module -->
<g id="node1" class="node">
<title>Module1Module</title>
<polygon fill="#8dd3c7" stroke="#000000" points="419.0996,-122 416.0996,-126 395.0996,-126 392.0996,-122 308.9004,-122 308.9004,-86 419.0996,-86 419.0996,-122"/>
<text text-anchor="middle" x="364" y="-99.8" font-family="Times,serif" font-size="14.00" fill="#000000">Module1Module</text>
</g>
<!-- AppModule -->
<g id="node4" class="node">
<title>AppModule</title>
<polygon fill="#8dd3c7" stroke="#000000" points="277.6571,-187 274.6571,-191 253.6571,-191 250.6571,-187 194.3429,-187 194.3429,-151 277.6571,-151 277.6571,-187"/>
<text text-anchor="middle" x="236" y="-164.8" font-family="Times,serif" font-size="14.00" fill="#000000">AppModule</text>
</g>
<!-- Module1Module&#45;&gt;AppModule -->
<g id="edge1" class="edge">
<title>Module1Module&#45;&gt;AppModule</title>
<path fill="none" stroke="#000000" d="M364,-122.1061C364,-141.3391 364,-169 364,-169 364,-169 287.912,-169 287.912,-169"/>
<polygon fill="#000000" stroke="#000000" points="287.912,-165.5001 277.912,-169 287.912,-172.5001 287.912,-165.5001"/>
</g>
<!-- Module2Module -->
<g id="node2" class="node">
<title>Module2Module</title>
<polygon fill="#8dd3c7" stroke="#000000" points="291.0996,-122 288.0996,-126 267.0996,-126 264.0996,-122 180.9004,-122 180.9004,-86 291.0996,-86 291.0996,-122"/>
<text text-anchor="middle" x="236" y="-99.8" font-family="Times,serif" font-size="14.00" fill="#000000">Module2Module</text>
</g>
<!-- Module2Module&#45;&gt;AppModule -->
<g id="edge2" class="edge">
<title>Module2Module&#45;&gt;AppModule</title>
<path fill="none" stroke="#000000" d="M236,-122.1061C236,-122.1061 236,-140.991 236,-140.991"/>
<polygon fill="#000000" stroke="#000000" points="232.5001,-140.9909 236,-150.991 239.5001,-140.991 232.5001,-140.9909"/>
</g>
<!-- UserModule -->
<g id="node3" class="node">
<title>UserModule</title>
<polygon fill="#8dd3c7" stroke="#000000" points="162.9762,-122 159.9762,-126 138.9762,-126 135.9762,-122 77.0238,-122 77.0238,-86 162.9762,-86 162.9762,-122"/>
<text text-anchor="middle" x="120" y="-99.8" font-family="Times,serif" font-size="14.00" fill="#000000">UserModule</text>
</g>
<!-- UserModule&#45;&gt;AppModule -->
<g id="edge3" class="edge">
<title>UserModule&#45;&gt;AppModule</title>
<path fill="none" stroke="#000000" d="M120,-122.1061C120,-141.3391 120,-169 120,-169 120,-169 184.1213,-169 184.1213,-169"/>
<polygon fill="#000000" stroke="#000000" points="184.1214,-172.5001 194.1213,-169 184.1213,-165.5001 184.1214,-172.5001"/>
</g>
</g>
</svg>
