<?xml version="1.0" encoding="UTF-8" standalone="no"?>
<!DOCTYPE svg PUBLIC "-//W3C//DTD SVG 1.1//EN"
 "http://www.w3.org/Graphics/SVG/1.1/DTD/svg11.dtd">
<!-- Generated by graphviz version 2.40.1 (20161225.0304)
 -->
<!-- Title: dependencies Pages: 1 -->
<svg width="504pt" height="211pt"
 viewBox="0.00 0.00 504.00 211.00" xmlns="http://www.w3.org/2000/svg" xmlns:xlink="http://www.w3.org/1999/xlink">
<g id="graph0" class="graph" transform="scale(1 1) rotate(0) translate(4 207)">
<title>dependencies</title>
<polygon fill="#ffffff" stroke="transparent" points="-4,4 -4,-207 500,-207 500,4 -4,4"/>
<text text-anchor="start" x="227.0091" y="-42.4" font-family="sans-serif" font-weight="bold" font-size="14.00" fill="#000000">Legend</text>
<polygon fill="#ffffb3" stroke="transparent" points="14,-10 14,-30 34,-30 34,-10 14,-10"/>
<text text-anchor="start" x="37.629" y="-15.4" font-family="sans-serif" font-size="14.00" fill="#000000"> &#160;Declarations</text>
<polygon fill="#8dd3c7" stroke="transparent" points="127,-10 127,-30 147,-30 147,-10 127,-10"/>
<text text-anchor="start" x="150.7251" y="-15.4" font-family="sans-serif" font-size="14.00" fill="#000000"> &#160;Module</text>
<polygon fill="#80b1d3" stroke="transparent" points="213,-10 213,-30 233,-30 233,-10 213,-10"/>
<text text-anchor="start" x="236.7812" y="-15.4" font-family="sans-serif" font-size="14.00" fill="#000000"> &#160;Bootstrap</text>
<polygon fill="#fdb462" stroke="transparent" points="310,-10 310,-30 330,-30 330,-10 310,-10"/>
<text text-anchor="start" x="333.6732" y="-15.4" font-family="sans-serif" font-size="14.00" fill="#000000"> &#160;Providers</text>
<polygon fill="#fb8072" stroke="transparent" points="406,-10 406,-30 426,-30 426,-10 406,-10"/>
<text text-anchor="start" x="429.7258" y="-15.4" font-family="sans-serif" font-size="14.00" fill="#000000"> &#160;Exports</text>
<g id="clust1" class="cluster">
<title>cluster_Module2Module</title>
<polygon fill="none" stroke="#000000" stroke-dasharray="1,5" points="92,-70 92,-195 404,-195 404,-70 92,-70"/>
</g>
<g id="clust3" class="cluster">
<title>cluster_Module2Module_imports</title>
<polygon fill="none" stroke="#000000" points="274,-78 274,-130 396,-130 396,-78 274,-78"/>
</g>
<g id="clust6" class="cluster">
<title>cluster_Module2Module_providers</title>
<polygon fill="none" stroke="#000000" points="100,-78 100,-130 266,-130 266,-78 100,-78"/>
</g>
<!-- ServicesModule -->
<g id="node1" class="node">
<title>ServicesModule</title>
<polygon fill="#8dd3c7" stroke="#000000" points="388.472,-122 385.472,-126 364.472,-126 361.472,-122 281.528,-122 281.528,-86 388.472,-86 388.472,-122"/>
<text text-anchor="middle" x="335" y="-99.8" font-family="Times,serif" font-size="14.00" fill="#000000">ServicesModule</text>
</g>
<!-- Module2Module -->
<g id="node2" class="node">
<title>Module2Module</title>
<polygon fill="#8dd3c7" stroke="#000000" points="314.0996,-187 311.0996,-191 290.0996,-191 287.0996,-187 203.9004,-187 203.9004,-151 314.0996,-151 314.0996,-187"/>
<text text-anchor="middle" x="259" y="-164.8" font-family="Times,serif" font-size="14.00" fill="#000000">Module2Module</text>
</g>
<!-- ServicesModule&#45;&gt;Module2Module -->
<g id="edge1" class="edge">
<title>ServicesModule&#45;&gt;Module2Module</title>
<path fill="none" stroke="#000000" d="M297.7819,-122.1061C297.7819,-122.1061 297.7819,-140.991 297.7819,-140.991"/>
<polygon fill="#000000" stroke="#000000" points="294.282,-140.9909 297.7819,-150.991 301.282,-140.991 294.282,-140.9909"/>
</g>
<!-- Module2Service -->
<g id="node3" class="node">
<title>Module2Service</title>
<ellipse fill="#fdb462" stroke="#000000" cx="183" cy="-104" rx="74.7207" ry="18"/>
<text text-anchor="middle" x="183" y="-99.8" font-family="Times,serif" font-size="14.00" fill="#000000">Module2Service</text>
</g>
<!-- Module2Service&#45;&gt;Module2Module -->
<g id="edge2" class="edge">
<title>Module2Service&#45;&gt;Module2Module</title>
<path fill="none" stroke="#000000" d="M230.9052,-118.104C230.9052,-118.104 230.9052,-140.7209 230.9052,-140.7209"/>
<polygon fill="#000000" stroke="#000000" points="227.4053,-140.7209 230.9052,-150.7209 234.4053,-140.7209 227.4053,-140.7209"/>
</g>
</g>
</svg>
